<?xml version="1.0" encoding="utf-8"?>
<!-- Generator: Adobe Illustrator 22.0.1, SVG Export Plug-In . SVG Version: 6.00 Build 0)  -->
<svg version="1.1" id="Layer_1" xmlns="http://www.w3.org/2000/svg" xmlns:xlink="http://www.w3.org/1999/xlink" x="0px" y="0px"
	 viewBox="0 0 15.6 16" style="enable-background:new 0 0 15.6 16;" xml:space="preserve">
<style type="text/css">
	.st0{fill:#FFFFFF;}
</style>
<g>
	<g>
		<path class="st0" d="M5.7,8.8c0-0.2-0.2-0.4-0.4-0.4H4c-0.2,0-0.4,0.2-0.4,0.4v1.3c0,0.2,0.2,0.4,0.4,0.4h1.3
			c0.2,0,0.4-0.2,0.4-0.4L5.7,8.8L5.7,8.8z"/>
		<path class="st0" d="M8.8,8.8c0-0.2-0.2-0.4-0.4-0.4H7.2C7,8.5,6.8,8.6,6.8,8.8v1.3c0,0.2,0.2,0.4,0.4,0.4h1.3
			c0.2,0,0.4-0.2,0.4-0.4V8.8z"/>
		<path class="st0" d="M12,8.8c0-0.2-0.2-0.4-0.4-0.4h-1.3c-0.2,0-0.4,0.2-0.4,0.4v1.3c0,0.2,0.2,0.4,0.4,0.4h1.3
			c0.2,0,0.4-0.2,0.4-0.4V8.8z"/>
		<path class="st0" d="M5.7,12c0-0.2-0.2-0.4-0.4-0.4H4c-0.2,0-0.4,0.2-0.4,0.4v1.3c0,0.2,0.2,0.4,0.4,0.4h1.3
			c0.2,0,0.4-0.2,0.4-0.4L5.7,12L5.7,12z"/>
		<path class="st0" d="M8.8,12c0-0.2-0.2-0.4-0.4-0.4H7.2c-0.2,0-0.4,0.2-0.4,0.4v1.3c0,0.2,0.2,0.4,0.4,0.4h1.3
			c0.2,0,0.4-0.2,0.4-0.4V12z"/>
		<path class="st0" d="M12,12c0-0.2-0.2-0.4-0.4-0.4h-1.3c-0.2,0-0.4,0.2-0.4,0.4v1.3c0,0.2,0.2,0.4,0.4,0.4h1.3
			c0.2,0,0.4-0.2,0.4-0.4L12,12L12,12z"/>
		<path class="st0" d="M14.3,1.8v1.9c0,0.9-0.7,1.6-1.6,1.6h-1c-0.9,0-1.6-0.7-1.6-1.6V1.8H5.6v1.9c0,0.9-0.7,1.6-1.6,1.6H3
			c-0.9,0-1.6-0.7-1.6-1.6V1.8C0.6,1.8,0,2.4,0,3.2v11.3C0,15.3,0.6,16,1.4,16h12.8c0.8,0,1.4-0.7,1.4-1.4V3.2
			C15.6,2.4,15,1.8,14.3,1.8z M13.8,13.9c0,0.3-0.3,0.6-0.6,0.6H2.4c-0.3,0-0.6-0.3-0.6-0.6V8c0-0.3,0.3-0.6,0.6-0.6h10.7
			c0.3,0,0.6,0.3,0.6,0.6L13.8,13.9L13.8,13.9z"/>
		<path class="st0" d="M3,4.3h1c0.3,0,0.5-0.2,0.5-0.5V0.5C4.5,0.2,4.3,0,4,0H3C2.7,0,2.4,0.2,2.4,0.5v3.2C2.4,4,2.7,4.3,3,4.3z"/>
		<path class="st0" d="M11.7,4.3h1c0.3,0,0.5-0.2,0.5-0.5V0.5c0-0.3-0.2-0.5-0.5-0.5h-1c-0.3,0-0.5,0.2-0.5,0.5v3.2
			C11.1,4,11.4,4.3,11.7,4.3z"/>
	</g>
</g>
</svg>
