<?xml version="1.0" encoding="utf-8"?>
<!-- Generator: Adobe Illustrator 22.0.1, SVG Export Plug-In . SVG Version: 6.00 Build 0)  -->
<svg version="1.1" id="Layer_1" xmlns="http://www.w3.org/2000/svg" xmlns:xlink="http://www.w3.org/1999/xlink" x="0px" y="0px"
	 viewBox="0 0 16 13.5" style="enable-background:new 0 0 16 13.5;" xml:space="preserve">
<style type="text/css">
	.st0{fill:#FFFFFF;}
</style>
<path class="st0" d="M14.8,1.2H5.7L5.3,0.6C5.1,0.2,4.7,0,4.2,0h-3C0.6,0,0,0.6,0,1.2v1.8v9.2c0,0.7,0.6,1.2,1.2,1.2h1.2v-0.3
	c0-0.5,0.4-0.9,0.9-0.9s0.9,0.4,0.9,0.9v0.3h7.4v-0.3c0-0.5,0.4-0.9,0.9-0.9c0.5,0,0.9,0.4,0.9,0.9v0.3h1.2c0.7,0,1.2-0.6,1.2-1.2
	V2.5C16,1.8,15.4,1.2,14.8,1.2z M2.5,9.8c0.3-1.3,1.5-1,1.7-1.7V7.6C4,7.5,3.7,7.1,3.7,6.8c-0.1,0-0.2-0.1-0.3-0.5
	C3.4,6.1,3.5,6,3.5,6c0,0-0.1-0.3-0.1-0.6c0-0.9,0.5-1.7,1.5-1.7c0.6,0,0.8,0.4,0.8,0.4c0.5,0,0.8,0.6,0.8,1.2C6.5,5.7,6.3,6,6.3,6
	c0.1,0,0.1,0.1,0.1,0.3c0,0.4-0.2,0.4-0.3,0.5c0,0.3-0.4,0.8-0.5,0.8v0.6C5.9,8.9,7,8.5,7.4,9.8H2.5z M12.9,9.2H9.2
	C8.9,9.2,8.6,9,8.6,8.6C8.6,8.3,8.9,8,9.2,8h3.7c0.3,0,0.6,0.3,0.6,0.6C13.5,9,13.3,9.2,12.9,9.2z M12.9,6.8H9.2
	c-0.3,0-0.6-0.3-0.6-0.6s0.3-0.6,0.6-0.6h3.7c0.3,0,0.6,0.3,0.6,0.6S13.3,6.8,12.9,6.8z"/>
</svg>
