<?xml version="1.0" encoding="utf-8"?>
<!-- Generator: Adobe Illustrator 22.0.1, SVG Export Plug-In . SVG Version: 6.00 Build 0)  -->
<svg version="1.1" id="Layer_1" xmlns="http://www.w3.org/2000/svg" xmlns:xlink="http://www.w3.org/1999/xlink" x="0px" y="0px"
	 viewBox="0 0 559.8 198.1" style="enable-background:new 0 0 559.8 198.1;" xml:space="preserve">
<style type="text/css">
	.st0{fill:#242323;}
</style>
<g>
	<path class="st0" d="M79,3.3c-5.7,0-10.2,4.4-10.2,10v72.5c0,13.7-11.3,25-25.2,25c-11.1,0-20.6-7.3-23.9-17.3
		c-1.6-5.3-7.3-8.2-12.8-6.4c-5.1,1.5-8.2,7.1-6.4,12.6c5.8,18.3,23,31.4,43.1,31.4c25,0,45.5-20.3,45.5-45.3V13.4
		C89.1,7.7,84.5,3.3,79,3.3z"/>
	<path class="st0" d="M302.5,58.8c4.4-5.8,6.9-13,6.9-20.8c0-19.2-15.5-34.7-34.7-34.7h-25.2c-0.2,0-0.2,0-0.2,0c-0.4,0-0.4,0-0.5,0
		c-5.5,0-10,4.4-10,10v107.7c0,5.5,4.6,10,10,10c0.2,0,0.2-0.2,0.5-0.2c0,0,0,0.2,0.2,0.2h32.3c21.5,0,39.1-17.5,39.1-39.2
		C320.9,78,313.4,65.8,302.5,58.8z M259,23.6h15.7c8,0,14.4,6.4,14.4,14.4s-6.4,14.8-14.4,14.8H259V23.6z M281.9,110.9H259V73.1
		h22.8c10.4,0.2,18.8,8.4,18.8,18.8C300.7,102.5,292.3,110.7,281.9,110.9z"/>
	<path class="st0" d="M397.2,39.8c-5.5,0-9.5,4.2-9.5,9.7v43.1c0,10.6-8.4,18.6-18.8,18.6c-10.4,0-19-8-19-18.6V49.5
		c0-5.5-4-9.7-9.7-9.7c-4.9,0-9.5,4.2-9.5,9.7v43.1c0,21,17.2,38.3,38.2,38.3c6,0,12.2-1.5,17.3-4.4c-2.9,9.5-12,16.4-22.8,16.6
		c-3.6,0-7.1-0.9-10.6-2.6c-4.4-2.4-10.6-0.4-13,4c-2.2,5.1-0.4,10.8,4.7,13c5.5,2.7,12.2,4.6,18.8,4.6c24.3,0,43.6-19.2,43.6-43.6
		V92.6V49.5C407,44,402.5,39.8,397.2,39.8z"/>
	<path class="st0" d="M458.3,39.8h-4.6V13.4c0-5.7-4.4-10-10-10c-5.7,0-10.2,4.4-10.2,10v26.5h-5.3c-5.7,0-10,4.4-10,10
		c0,5.5,4.4,10,10,10h5.3v50.9c0,11.1,9.1,20.3,20.3,20.3c5.7,0,10-4.4,10-10c0-5.7-4.4-10.2-10-10.2V59.9h4.6
		c5.5,0,10.2-4.6,10.2-10C468.5,44.2,463.8,39.8,458.3,39.8z"/>
	<path class="st0" d="M515.8,39.8c-25,0-44.4,20.8-44.5,45.6c0.2,24.8,19.5,45.5,44.5,45.6c13,0,23.7-3.8,32.7-12
		c4.2-3.8,2.4-9.3,0-11.9c-2.4-2.9-9.9-3.5-13.7,0.5c-4.6,3.5-12.4,5.1-19,4.6c-6.4-0.5-13.7-3.8-17.5-8.2c-3.3-3.1-5.3-7.9-6.2-12
		h58.1c5.1,0,8.9-2.9,9.5-7.3c0.2-0.4,0.2-1.3,0.2-1.6c0-0.4,0-0.7,0-0.9C558.3,57.6,539.5,39.8,515.8,39.8z M491.1,76.5
		c1.5-7.5,9.1-18.6,24.6-19.3c15.9,1.3,25.2,12,27,19.3H491.1z"/>
	<path class="st0" d="M163.6,0c-36.4,0-66.2,29.8-66.4,66.4c0.2,31.3,20.8,56.8,49.7,64c0,0,2.1,0.6,2.1,2.8c0,12,0,47.6,0,47.6
		c0,9.4,5.6,17.3,13.9,17.3l1.5,0c8.6,0,13.9-7.9,13.9-17.3c0,0,0-36,0-48c0-2.3,2.3-2.6,2.3-2.6C209.4,123,230,97.5,230,66.4
		C230,30,200.2,0.2,163.6,0z M163.8,115.7c-27,0-49-21.9-49-49s21.9-49,49-49c27,0,49,21.9,49,49
		C212.8,93.8,190.8,115.7,163.8,115.7z"/>
	<path class="st0" d="M175.6,27c-3.6-1.3-7.7,0.2-9,3.8c-1.3,3.6,0.2,7.7,3.8,9c15,6,22.1,23.3,16.1,38.3c-1.1,2.6-0.4,5.6,1.7,7.3
		c0.6,0.6,1.5,1.1,2.3,1.5c3.6,1.3,7.7-0.2,9-3.8C208.3,61.1,197.6,35.8,175.6,27z"/>
</g>
</svg>
