<?xml version="1.0" encoding="utf-8"?>
<!-- Generator: Adobe Illustrator 22.0.1, SVG Export Plug-In . SVG Version: 6.00 Build 0)  -->
<svg version="1.1" id="Layer_1" xmlns="http://www.w3.org/2000/svg" xmlns:xlink="http://www.w3.org/1999/xlink" x="0px" y="0px"
	 viewBox="0 0 132.8 198.1" style="enable-background:new 0 0 132.8 198.1;" xml:space="preserve">
<style type="text/css">
	.st0{fill:#FFFFFF;}
</style>
<g>
	<path class="st0" d="M66.4,0C30,0,0.2,29.8,0,66.4c0.2,31.3,20.8,56.8,49.7,64c0,0,2.1,0.6,2.1,2.8c0,12,0,47.6,0,47.6
		c0,9.4,5.6,17.3,13.9,17.3h1.5c8.6,0,13.9-7.9,13.9-17.3c0,0,0-36,0-48c0-2.3,2.3-2.6,2.3-2.6c28.8-7.2,49.4-32.7,49.4-63.8
		C132.8,30,103,0.2,66.4,0z M66.6,115.7c-27,0-49-21.9-49-49s21.9-49,49-49c27,0,49,21.9,49,49S93.6,115.7,66.6,115.7z"/>
	<path class="st0" d="M78.4,27c-3.6-1.3-7.7,0.2-9,3.8s0.2,7.7,3.8,9c15,6,22.1,23.3,16.1,38.3c-1.1,2.6-0.4,5.6,1.7,7.3
		c0.6,0.6,1.5,1.1,2.3,1.5c3.6,1.3,7.7-0.2,9-3.8C111.1,61.1,100.4,35.8,78.4,27z"/>
</g>
</svg>
