<?xml version="1.0" encoding="utf-8"?>
<!-- Generator: Adobe Illustrator 22.0.1, SVG Export Plug-In . SVG Version: 6.00 Build 0)  -->
<svg version="1.1" id="Layer_1" xmlns="http://www.w3.org/2000/svg" xmlns:xlink="http://www.w3.org/1999/xlink" x="0px" y="0px"
	 viewBox="0 0 16 16.4" style="enable-background:new 0 0 16 16.4;" xml:space="preserve">
<style type="text/css">
	.st0{fill:#FFFFFF;}
</style>
<path class="st0" d="M14.1,9c0-0.3,0.1-0.5,0.1-0.8c0-0.3,0-0.5-0.1-0.8l1.7-1.4C16,5.9,16,5.7,15.9,5.5l-1.6-2.8
	c-0.1-0.2-0.3-0.3-0.5-0.2l-2,0.8c-0.4-0.3-0.9-0.6-1.4-0.8l-0.3-2.2C10,0.2,9.8,0,9.6,0H6.4C6.1,0,6,0.2,5.9,0.3L5.6,2.5
	C5.1,2.7,4.7,3,4.2,3.3l-2-0.8C2,2.4,1.8,2.5,1.7,2.7L0.1,5.5C0,5.7,0,5.9,0.2,6.1l1.7,1.4c0,0.3-0.1,0.5-0.1,0.8
	c0,0.3,0,0.5,0.1,0.8l-1.7,1.4C0,10.5,0,10.7,0.1,10.9l1.6,2.8C1.8,13.9,2,14,2.2,13.9l2-0.8c0.4,0.3,0.9,0.6,1.4,0.8l0.3,2.2
	c0,0.2,0.2,0.3,0.4,0.3h3.3c0.2,0,0.4-0.2,0.4-0.3l0.3-2.2c0.5-0.2,1-0.5,1.4-0.8l2,0.8c0.2,0.1,0.4,0,0.5-0.2l1.6-2.8
	c0.1-0.2,0.1-0.4-0.1-0.5L14.1,9z M8,11.1c-1.6,0-2.9-1.3-2.9-2.9S6.4,5.3,8,5.3s2.9,1.3,2.9,2.9S9.6,11.1,8,11.1z"/>
</svg>
