<?xml version="1.0" encoding="utf-8"?>
<!-- Generator: Adobe Illustrator 22.0.1, SVG Export Plug-In . SVG Version: 6.00 Build 0)  -->
<svg version="1.1" id="Capa_1" xmlns="http://www.w3.org/2000/svg" xmlns:xlink="http://www.w3.org/1999/xlink" x="0px" y="0px"
	 viewBox="0 0 16 16" style="enable-background:new 0 0 16 16;" xml:space="preserve">
<style type="text/css">
	.st0{fill:#FFFFFF;}
</style>
<g>
	<g>
		<g>
			<path class="st0" d="M15.9,7.1c0-0.1-0.1-0.2-0.1-0.2l-2-2c-0.3-0.3-0.7-0.3-0.9,0c-0.3,0.3-0.3,0.7,0,0.9l0.9,0.9H10
				C9.6,6.7,9.3,7,9.3,7.3C9.3,7.7,9.6,8,10,8h3.7l-0.9,0.9c-0.3,0.3-0.3,0.7,0,0.9C13,9.9,13.2,10,13.3,10c0.2,0,0.3-0.1,0.5-0.2
				l2-2c0.1-0.1,0.1-0.1,0.1-0.2C16,7.4,16,7.2,15.9,7.1z"/>
			<path class="st0" d="M11.3,9.3c-0.4,0-0.7,0.3-0.7,0.7v3.3H8V2.7C8,2.4,7.8,2.1,7.5,2L5.2,1.3h5.5v3.3c0,0.4,0.3,0.7,0.7,0.7
				S12,5,12,4.7v-4C12,0.3,11.7,0,11.3,0H0.7c0,0,0,0-0.1,0c0,0-0.1,0-0.1,0c-0.1,0-0.1,0-0.2,0.1c0,0,0,0,0,0c0,0,0,0,0,0
				C0.2,0.2,0.1,0.3,0.1,0.4c0,0,0,0,0,0.1C0,0.5,0,0.5,0,0.6c0,0,0,0,0,0.1c0,0,0,0,0,0V14c0,0.3,0.2,0.6,0.5,0.7L7.2,16
				c0,0,0.1,0,0.1,0c0.2,0,0.3-0.1,0.4-0.2C7.9,15.7,8,15.5,8,15.3v-0.7h3.3c0.4,0,0.7-0.3,0.7-0.7v-4C12,9.6,11.7,9.3,11.3,9.3z"/>
		</g>
	</g>
</g>
</svg>
